HIERARCHY
ROOT hip
{
	OFFSET 0.000000 0.000000 0.000000 
	CHANNELS 6 Xposition Yposition Zposition Xrotation Zrotation Yrotation
	JOINT abdomen
	{
		OFFSET 0.000000 3.402643 0.000000 
		CHANNELS 3 Xrotation Zrotation Yrotation
		JOINT chest
		{
			OFFSET 0.000000 8.438565 -0.680529 
			CHANNELS 3 Xrotation Zrotation Yrotation
			JOINT neck
			{
				OFFSET 0.000000 10.207942 -0.272212 
				CHANNELS 3 Xrotation Zrotation Yrotation
				JOINT head
				{
					OFFSET 0.000000 3.130431 0.000000 
					CHANNELS 3 Xrotation Zrotation Yrotation
					End Site
					{
						OFFSET 0.000000 3.130435 0.000000 
					}
				}
			}
			JOINT lCollar
			{
				OFFSET 3.470700 6.669187 -0.816635 
				CHANNELS 3 Yrotation Zrotation Xrotation
				JOINT lShldr
				{
					OFFSET 3.198488 0.000000 0.000000 
					CHANNELS 3 Zrotation Yrotation Xrotation
					JOINT lForeArm
					{
						OFFSET 10.139888 0.000000 0.000000 
						CHANNELS 3 Yrotation Zrotation Xrotation
						JOINT lHand
						{
							OFFSET 8.370511 0.000000 0.000000 
							CHANNELS 3 Zrotation Yrotation Xrotation
							End Site
							{
								OFFSET 4.083176 0.000000 0.000000 
							}
						}
					}
				}
			}
			JOINT rCollar
			{
				OFFSET -3.470700 6.669187 -0.816635 
				CHANNELS 3 Yrotation Zrotation Xrotation
				JOINT rShldr
				{
					OFFSET -3.198488 0.000000 0.000000 
					CHANNELS 3 Zrotation Yrotation Xrotation
					JOINT rForeArm
					{
						OFFSET -10.139888 0.000000 0.000000 
						CHANNELS 3 Yrotation Zrotation Xrotation
						JOINT rHand
						{
							OFFSET -8.370511 0.000000 0.000000 
							CHANNELS 3 Zrotation Yrotation Xrotation
							End Site
							{
								OFFSET -4.083176 0.000000 0.000000 
							}
						}
					}
				}
			}
		}
	}
	JOINT lThigh
	{
		OFFSET 5.308129 -1.633274 1.361059 
		CHANNELS 3 Xrotation Zrotation Yrotation
		JOINT lShin
		{
			OFFSET -2.041588 -20.007561 0.000000 
			CHANNELS 3 Xrotation Zrotation Yrotation
			JOINT lFoot
			{
				OFFSET 0.000000 -19.190928 -1.224953 
				CHANNELS 3 Xrotation Yrotation Zrotation
				End Site
				{
					OFFSET 0.000000 -2.449906 4.627600 
				}
			}
		}
	}
	JOINT rThigh
	{
		OFFSET -5.308129 -1.633274 1.361059 
		CHANNELS 3 Xrotation Zrotation Yrotation
		JOINT rShin
		{
			OFFSET 2.041588 -20.007561 0.000000 
			CHANNELS 3 Xrotation Zrotation Yrotation
			JOINT rFoot
			{
				OFFSET 0.000000 -19.190928 -1.224953 
				CHANNELS 3 Xrotation Yrotation Zrotation
				End Site
				{
					OFFSET 0.000000 -2.449906 4.627600 
				}
			}
		}
	}
}
MOTION
Frames: 19
Frame Time: 0.011111
119.951752 53.169601 -3.038393 9.635484 9.294242 -83.512367 24.092432 9.770271 6.001726 -41.242229 2.423337 -0.186724 -21.963192 -13.058431 -5.829834 45.905331 13.632127 -15.118579 -5.130234 -1.441212 0.239105 -73.179291 -14.289147 14.020366 -55.376881 8.727498 10.374300 8.524705 12.647240 -54.202526 -0.248815 -3.576873 1.747659 56.811726 6.027829 39.684158 59.466385 -9.235153 12.174253 -8.534408 -12.637552 62.630718 -14.830407 27.477655 -19.902143 5.956677 -5.991312 -1.559771 -70.240738 -6.329260 6.105852 7.566964 17.068476 16.157444 -3.877945 5.878632 0.152472 -39.629410 -11.727539 -8.055306 
119.939331 53.171326 -3.050794 9.650646 9.335780 -83.550758 24.062429 9.769772 6.006033 -41.261597 2.404386 -0.182582 -21.839836 -13.033814 -5.906522 45.520435 13.782578 -15.201745 -5.130234 -1.441212 0.239105 -73.163315 -14.346434 13.969394 -55.323753 8.719829 10.362728 8.524705 12.647240 -54.231827 -0.248815 -3.576873 1.747659 56.794544 5.920008 39.752266 59.454121 -9.228943 12.165483 -8.534408 -12.637552 63.070171 -14.848927 27.506104 -20.097702 5.899092 -5.993895 -1.536091 -70.532150 -6.533662 5.925424 7.557496 17.088322 16.235254 -3.896906 5.877849 0.150758 -39.138519 -11.826695 -7.887630 
119.922112 53.168228 -3.061818 9.636751 9.393230 -83.644753 24.033430 9.766549 6.046627 -41.271023 2.369066 -0.163606 -21.824369 -13.093374 -5.908064 45.371132 14.046298 -15.102101 -5.130234 -1.441212 0.239105 -73.179413 -14.377538 13.929774 -55.345463 8.725248 10.372478 8.524705 12.647240 -54.309952 -0.248815 -3.576873 1.747659 56.805817 5.851877 39.469185 59.624527 -9.243636 12.235991 -8.534408 -12.637552 62.269386 -14.761695 27.516624 -20.113590 5.859262 -5.991501 -1.560717 -70.677185 -6.577009 5.976662 7.548683 17.089268 16.271959 -3.904382 5.884202 0.140761 -37.700874 -12.475336 -7.602735 
119.900055 53.166157 -3.077320 9.620255 9.421714 -83.739876 24.077112 9.821014 6.094903 -41.260036 2.231909 -0.147317 -22.147108 -13.232319 -5.736730 45.901688 14.376860 -14.740308 -5.130234 -1.441212 0.239105 -73.142990 -14.354178 13.901589 -55.462311 8.744071 10.416667 8.524705 12.647240 -54.290421 -0.248815 -3.576873 1.747659 56.853840 5.891994 39.313560 59.700176 -9.254457 12.279954 -8.534408 -12.637552 62.035015 -14.672359 27.554047 -20.042271 5.813262 -5.995939 -1.537953 -70.693916 -6.549992 6.044301 7.575445 17.086288 16.161777 -3.945873 5.880530 0.146257 -36.753891 -12.885509 -7.384117 
119.880775 53.166157 -3.102467 9.667214 9.461119 -83.774994 24.114710 9.936634 6.120746 -41.278919 2.151339 -0.146700 -22.339111 -13.261210 -5.664978 46.127365 14.474501 -14.580613 -5.130234 -1.441212 0.239105 -73.069084 -14.317172 13.935539 -55.524796 8.749629 10.439873 8.524705 12.647240 -54.124405 -0.248815 -3.576873 1.747659 56.892509 5.912372 39.245697 59.720436 -9.252504 12.282361 -8.534408 -12.637552 62.308449 -14.740559 27.671553 -20.004353 5.870913 -5.993388 -1.582145 -70.588097 -6.529399 5.997352 7.592885 17.142641 15.920524 -4.034194 5.878976 0.118962 -36.448616 -12.892062 -7.265690 
119.855629 53.165813 -3.127271 9.681875 9.501013 -83.792816 24.054575 9.926818 6.093598 -41.269466 2.189138 -0.156270 -22.226082 -13.210996 -5.698138 45.911465 14.481562 -14.610725 -5.130234 -1.441212 0.239105 -73.044403 -14.275375 14.092630 -55.503086 8.744305 10.430081 8.524705 12.647240 -54.124405 -0.248815 -3.576873 1.747659 56.893795 5.853791 39.235935 59.656902 -9.248471 12.256937 -8.534408 -12.637552 62.728374 -14.799263 27.729876 -20.129148 5.910837 -5.995831 -1.546757 -70.650307 -6.585211 5.911336 7.660757 17.171438 15.988194 -4.200586 5.869662 0.094873 -36.355305 -12.973693 -7.255464 
119.820496 53.163742 -3.145184 9.673151 9.536406 -83.859688 23.951347 9.859429 6.079959 -41.191875 2.260424 -0.152073 -22.024736 -13.193640 -5.775300 45.590530 14.534593 -14.720422 -5.130234 -1.441212 0.239105 -73.045464 -14.265664 14.092631 -55.451374 8.741703 10.416647 8.524705 12.647240 -54.182995 -0.248815 -3.576873 1.747659 56.903362 5.863768 39.109104 59.540699 -9.241333 12.208232 -8.534408 -12.637552 62.855328 -14.711502 27.749632 -20.125790 5.887708 -5.990871 -1.563348 -70.776665 -6.617913 5.937869 7.780075 17.173666 16.209518 -4.384146 5.869418 0.089042 -36.394463 -13.045377 -7.308794 
119.783981 53.160645 -3.157930 9.683648 9.572041 -83.941643 23.835621 9.890134 6.081490 -41.084114 2.229895 -0.149922 -21.864811 -13.129746 -5.928113 45.334129 14.478868 -14.998822 -5.130234 -1.441212 0.239105 -73.002701 -14.300575 14.249999 -55.409359 8.735889 10.393820 8.524705 12.647240 -54.173229 -0.248815 -3.576873 1.747659 56.941170 5.923198 39.090073 59.593361 -9.244338 12.233114 -8.534408 -12.637552 62.660019 -14.608921 27.821991 -20.012825 5.846585 -5.990621 -1.540354 -70.723114 -6.557451 6.046434 7.924118 17.181179 16.224678 -4.602029 5.861584 0.040057 -36.238026 -13.296700 -7.366702 
119.740906 53.154789 -3.166887 9.693803 9.625029 -83.996727 23.712704 9.974687 6.084551 -40.995518 2.152039 -0.136067 -21.874542 -13.062572 -6.015639 45.316181 14.356574 -15.219056 -5.130234 -1.441212 0.239105 -72.924576 -14.302425 14.369435 -55.345463 8.725248 10.372478 8.524705 12.647240 -54.056042 -0.248815 -3.576873 1.747659 57.018093 5.983477 38.905533 59.667645 -9.250284 12.267167 -8.534408 -12.637552 62.103371 -14.556468 27.877703 -19.850214 5.830756 -5.992126 -1.559105 -70.526840 -6.374218 6.289870 8.080341 17.171232 16.103920 -4.806216 5.860497 0.012030 -35.924568 -13.070198 -7.104861 
119.694061 53.150658 -3.179978 9.680050 9.700411 -84.070168 23.595890 9.995801 6.089554 -40.975510 2.092911 -0.130175 -21.830999 -13.025861 -6.048053 45.215687 14.328699 -15.257009 -5.130234 -1.441212 0.239105 -72.868744 -14.188713 14.373827 -55.344234 8.719696 10.364539 8.524705 12.647240 -54.007214 -0.248815 -3.576873 1.747659 57.127121 5.917468 38.721363 59.806973 -9.264278 12.326897 -8.534408 -12.637552 61.839699 -14.573932 27.905128 -19.606798 5.899804 -5.992644 -1.565276 -70.162842 -6.009795 6.767951 8.133815 17.186171 16.010130 -4.885261 5.871388 0.004401 -35.355335 -13.034790 -6.872455 
119.652374 53.151001 -3.194790 9.638869 9.780566 -84.184776 23.525589 9.982342 6.106170 -41.004456 2.045568 -0.119041 -21.769268 -12.985458 -6.054197 45.159172 14.302995 -15.256873 -5.130234 -1.441212 0.239105 -72.794670 -14.063327 14.371389 -55.387650 8.730505 10.384053 8.524705 12.647240 -53.831429 -0.248815 -3.576873 1.747659 57.256554 5.812827 38.684929 59.902847 -9.272685 12.373427 -8.534408 -12.637552 62.142433 -14.728764 27.913311 -18.976200 6.350409 -6.005889 -1.606254 -69.220612 -5.298475 7.457273 8.083050 17.174206 15.667219 -4.806162 5.860540 0.012026 -38.035931 -10.938235 -6.876644 
119.608620 53.146862 -3.206848 9.544003 9.845056 -84.316277 23.500853 9.907080 6.114827 -41.023861 2.029064 -0.105395 -21.840221 -12.978237 -6.001877 45.305103 14.309715 -15.159298 -5.130234 -1.441212 0.239105 -72.771019 -14.011821 14.303891 -55.409359 8.735889 10.393820 8.524705 12.647240 -53.733776 -0.248815 -3.576873 1.747659 57.365795 5.737048 38.803497 59.923092 -9.270645 12.375857 -8.534408 -12.637552 62.689308 -15.119570 27.786421 -17.726059 7.341181 -5.982575 -1.752661 -67.427505 -3.481239 9.333110 7.969461 17.099911 14.730602 -4.703088 5.856393 0.031681 -38.148727 -9.911263 -6.334186 
119.555237 53.135498 -3.219938 9.467625 9.917348 -84.437065 23.448664 9.868637 6.113111 -41.072433 1.991165 -0.097316 -21.738432 -12.897928 -5.978682 45.145439 14.306998 -15.063883 -5.130234 -1.441212 0.239105 -72.765419 -13.883596 14.231054 -55.398418 8.733508 10.393808 8.524705 12.647240 -53.763073 -0.248815 -3.576873 1.747659 57.447189 5.592290 38.911919 59.987968 -9.279139 12.408195 -8.534408 -12.637552 62.874855 -15.831921 27.678778 -16.314495 8.702132 -5.983320 -1.954034 -65.155838 -0.954984 11.587059 7.860395 17.029734 13.596634 -4.512204 5.869328 0.047432 -37.245224 -9.374217 -5.635221 
119.493225 53.120686 -3.235441 9.480579 9.906062 -84.546257 23.465900 9.977018 6.161177 -41.120522 1.882207 -0.090851 -21.521713 -12.739645 -5.999712 44.792953 14.196664 -15.029599 -5.130234 -1.441212 0.239105 -72.742615 -13.733985 14.215007 -55.367172 8.730656 10.382235 8.524705 12.647240 -53.733776 -0.248815 -3.576873 1.747659 57.576820 5.477878 38.884277 60.029831 -9.279858 12.423003 -8.534408 -12.637552 62.786964 -16.818636 27.678923 -15.050833 10.488009 -5.975559 -2.201538 -62.769638 1.249147 12.724582 7.857452 17.074846 12.601246 -4.318419 5.881025 0.083778 -36.655445 -8.760111 -5.071936 
119.433617 53.106216 -3.257488 9.494625 9.835492 -84.646889 23.604473 10.117290 6.228237 -41.119686 1.754433 -0.077767 -21.439169 -12.672112 -5.998619 44.565331 14.177321 -14.999161 -5.130234 -1.441212 0.239105 -72.714752 -13.721328 14.127980 -55.345463 8.725248 10.372478 8.524705 12.647240 -53.655647 -0.248815 -3.576873 1.747659 57.683712 5.509487 38.875916 59.986588 -9.274256 12.399852 -8.534408 -12.637552 62.865089 -18.084146 27.645262 -13.981047 12.793749 -5.944547 -2.544468 -60.152061 3.422853 13.315220 7.958956 17.108971 11.927746 -4.169559 5.868168 0.108308 -36.350792 -8.086594 -4.538058 
119.370255 53.090027 -3.283669 9.529079 9.805154 -84.655045 23.726889 10.302258 6.280585 -41.040756 1.624297 -0.071917 -21.545248 -12.735111 -5.922368 44.498634 14.291759 -14.837804 -5.130234 -1.441212 0.239105 -72.679558 -13.776656 13.913989 -55.398418 8.733508 10.393808 8.524705 12.647240 -53.548233 -0.248815 -3.576873 1.747659 57.770622 5.560201 38.886833 59.987968 -9.279139 12.408195 -8.534408 -12.637552 62.904156 -19.754356 27.459734 -13.412741 15.611242 -5.877606 -2.927437 -57.147976 5.776386 13.631024 8.060875 17.150883 11.665966 -4.109978 5.886093 0.112562 -36.153378 -7.732891 -4.255225 
119.293091 53.070389 -3.302615 9.607692 9.763814 -84.554382 23.855564 10.582511 6.302691 -40.971489 1.451435 -0.075842 -21.931555 -12.751246 -5.675442 44.995777 14.470042 -14.279891 -5.130234 -1.441212 0.239105 -72.643112 -13.753307 13.944438 -55.535568 8.752596 10.449646 8.524705 12.647240 -53.655647 -0.248815 -3.576873 1.747659 57.855396 5.259222 40.568451 60.317379 -9.302109 12.552056 -8.534408 -12.637552 67.581886 -21.750856 27.094645 -13.359005 18.844456 -5.787016 -3.372066 -53.689789 8.448391 13.726881 8.191628 17.253092 11.192548 -4.059186 5.873253 0.107827 -35.808769 -7.530062 -4.008495 
119.215561 53.051788 -3.311228 9.647868 9.735243 -84.469200 24.022549 10.821428 6.349177 -40.902309 1.271552 -0.068292 -22.317839 -12.637246 -5.446171 45.441574 14.455658 -13.802114 -5.130234 -1.441212 0.239105 -72.604568 -13.749380 14.023717 -55.630695 8.765657 10.484228 8.524705 12.647240 -53.597054 -0.248815 -3.576873 1.747659 58.158451 5.715060 37.905674 60.136536 -9.288773 12.468675 -8.534408 -12.637552 59.759628 -23.773066 26.568260 -13.456794 22.079639 -5.699791 -3.824008 -49.591572 10.678389 12.854491 8.241245 17.312830 10.277863 -3.877256 5.878661 0.142701 -35.319637 -7.027531 -3.548699 
119.140114 53.037663 -3.313983 9.724230 9.699924 -84.441338 24.214798 11.099585 6.546747 -40.764858 1.077601 -0.036130 -22.473848 -12.575541 -5.378139 45.263000 14.372287 -13.676610 -5.130234 -1.441212 0.239105 -72.585503 -13.835811 14.148618 -55.705185 8.779420 10.526773 8.524705 12.647240 -53.499401 -0.248815 -3.576873 1.747659 58.226242 5.745818 38.277683 60.136536 -9.288773 12.468675 -8.534408 -12.637552 61.077984 -25.777887 25.994217 -13.325996 25.192419 -5.542921 -4.248847 -45.488041 12.230821 11.492048 8.298274 17.378683 9.628778 -3.750144 5.890876 0.153425 -34.224724 -6.941417 -3.169506 
